<svg data-v-992f7eb0="" data-v-40abbb1e="" aria-hidden="true" xmlns="http://www.w3.org/2000/svg" xmlns:xlink="http://www.w3.org/1999/xlink" class="svg-icon technology-icon icon-inline" viewBox="0 0 14 14"><path data-v-992f7eb0="" d="M7.8697901,7.5076151c0.3033504-0.0841899,0.6352901-0.2080202,0.9958096-0.37149l4.1602001-1.8998199
    c0.3688602-0.1664901,0.6234398-0.3512802,0.7637501-0.5544C13.9298496,4.4787951,14,4.2683754,14,4.0506454
    c0-0.22053-0.0705004-0.43241-0.2115097-0.6356201c-0.1409998-0.2032199-0.3952398-0.3880701-0.7627001-0.5545499
    L8.8394203,0.9567549c-0.3413801-0.15478-0.6630497-0.27391-0.9650002-0.3574
    c-0.30195-0.08349-0.5937901-0.12523-0.8755198-0.12523c-0.2802601,0-0.5713601,0.04174-0.8733101,0.12523
    s-0.6236501,0.20262-0.9651098,0.3574L0.96737,2.8604748C0.60138,3.0269649,0.34866,3.2118149,0.2092,3.4150248
    C0.06974,3.6182446,0.00001,3.8301148,0.00001,4.0506449c0,0.21773,0.06936,0.4281502,0.20809,0.6312599
    c0.13873,0.2031102,0.39182,0.3879099,0.75928,0.5544l4.1669302,1.8998199
    c0.3575001,0.1634698,0.6883402,0.2873001,0.9924998,0.37149C6.4075699,7.5853248,6.6768699,7.6258545,6.93469,7.6292048
    l0.06422,0.0000601C7.2761497,7.6323447,7.5664501,7.591795,7.8698001,7.5076046L7.8697901,7.5076151z M7.9427099,10.4403152
    c0.3103304-0.0972996,0.61796-0.2161198,0.9228897-0.3564501l4.1602001-1.8972998
    c0.3688602-0.1664906,0.6226702-0.3543501,0.7614298-0.5636001S13.9969091,7.2056656,14,6.9988055
    c-0.0030804-0.1659899-0.0474195-0.3269601-0.1330099-0.4828901c-0.0855904-0.1559401-0.2246704-0.2995501-0.4172297-0.43085
    l-4.25284,1.9320998c-0.43398,0.1982393-0.8263798,0.3429403-1.1771898,0.4341097
    C7.6689205,8.5424356,7.3286405,8.5857754,6.9989004,8.581295c-0.32968,0.0044899-0.66959-0.0388498-1.0197301-0.1300201
    S5.2354503,8.2154045,4.7984605,8.0171642L0.54814,6.0850649c-0.19123,0.1313-0.32962,0.27491-0.41518,0.43085
    S0.00308,6.8328152,0,6.998805c0.00308,0.2068601,0.07399,0.4149199,0.21272,0.6241598
    c0.13873,0.20925,0.39028,0.39711,0.75465,0.5636005l4.1669302,1.8972998
    c0.3019199,0.1403399,0.6088099,0.25916,0.92068,0.3564501c0.3118701,0.0972996,0.6265101,0.1436996,0.9439201,0.1392202
    C7.3177805,10.5840254,7.6323805,10.5376158,7.9427099,10.4403152z M7.9404001,13.3840055
    c0.3087902-0.0988798,0.6156397-0.2168999,0.9205799-0.3540897l4.1602001-1.8974104
    c0.3658504-0.1633997,0.6189003-0.3508997,0.7591696-0.5624905s0.2119398-0.4192801,0.2150297-0.6230602
    c-0.0030804-0.1582098-0.0447598-0.3156404-0.12502-0.47227s-0.2183599-0.30299-0.4142799-0.4390497l-4.2637701,1.9250603
    c-0.4370003,0.1996403-0.8301497,0.3461704-1.17945,0.4395704s-0.6872902,0.1378698-1.0139499,0.1333799
    c-0.32968,0.0044899-0.66959-0.04074-1.0197301-0.1356897s-0.7437201-0.2406998-1.1807098-0.4372597L0.54141,9.035635
    C0.3424,9.1716948,0.20318,9.3180447,0.12376,9.4746847S0.00308,9.7887449,0,9.9469547
    c0.00308,0.2037802,0.07441,0.4114599,0.21398,0.6230602c0.13957,0.2115898,0.3907,0.3990898,0.75339,0.5624905
    l4.1669302,1.8974104c0.3019199,0.1371803,0.6088099,0.2552099,0.92068,0.3540897
    c0.3118701,0.0988703,0.6265101,0.1460695,0.9439201,0.1415796C7.3177805,13.5300751,7.6316104,13.4828749,7.9404001,13.3840055z"></path></svg>
